<?xml version="1.0" encoding="iso-8859-1"?>
<!-- Uploaded to: SVG Repo, www.svgrepo.com, Generator: SVG Repo Mixer Tools -->
<svg fill="#000000" height="800px" width="800px" version="1.1" id="Layer_1" xmlns="http://www.w3.org/2000/svg" xmlns:xlink="http://www.w3.org/1999/xlink" 
	 viewBox="0 0 512 512" xml:space="preserve">
<g>
	<g>
		<path d="M290.133,0h-68.267C198.304,0,179.2,19.104,179.2,42.667v119.467c0,39.527,29.871,72.07,68.267,76.317v89.947v21.47v32.45
			c-9.938-9.522-23.412-15.383-38.263-15.383h-21.47c-4.713,0-8.533,3.82-8.533,8.533v21.47c0,30.56,24.77,55.33,55.33,55.33h12.937
			v51.2c0,4.713,3.82,8.533,8.533,8.533s8.533-3.82,8.533-8.533v-59.733v-21.47V358.4h12.937c30.56,0,55.33-24.77,55.33-55.33V281.6
			c0-4.713-3.82-8.533-8.533-8.533h-21.47c-14.852,0-28.325,5.862-38.263,15.383v-50c38.396-4.247,68.267-36.79,68.267-76.317
			V42.667C332.8,19.104,313.696,0,290.133,0z M234.53,435.2c-21.135,0-38.263-17.129-38.263-38.263V384h12.937
			c21.135,0,38.263,17.129,38.263,38.263V435.2H234.53z M302.797,290.133h12.937v12.937c0,21.135-17.129,38.263-38.263,38.263
			h-12.937v-12.937C264.533,307.262,281.662,290.133,302.797,290.133z M256,221.867c-32.987,0-59.733-26.746-59.733-59.733V76.8
			c7.131,5.357,15.995,8.534,25.6,8.534h42.667c14.142,0,25.6-11.458,25.6-25.6s-11.458-25.6-25.6-25.6h-25.6
			c-4.713,0-8.533,3.82-8.533,8.533s3.82,8.533,8.533,8.533h25.6c4.717,0,8.533,3.817,8.533,8.533s-3.817,8.533-8.533,8.533h-42.667
			c-14.137,0-25.6-11.463-25.6-25.6c0-14.137,11.463-25.6,25.6-25.6h68.267c14.137,0,25.6,11.463,25.6,25.6v25.6
			c0,14.137-11.463,25.6-25.6,25.6c-4.713,0-8.533,3.82-8.533,8.533s3.82,8.533,8.533,8.533c9.606,0,18.469-3.176,25.6-8.534v59.734
			C315.733,195.121,288.987,221.867,256,221.867z"/>
	</g>
</g>
</svg>