<svg xmlns="http://www.w3.org/2000/svg" xmlns:xlink="http://www.w3.org/1999/xlink" version="1.1" x="0px" y="0px" viewBox="0 0 64 80" style="enable-background:new 0 0 64 64;" xml:space="preserve"><path d="M48.195,15.244c0.106-0.257,0.102-0.546-0.015-0.799c-0.115-0.253-0.331-0.446-0.595-0.534  c-0.231-0.077-5.328-1.721-10.408-0.195c-0.861-4.38-4.334-7.614-4.502-7.768c-0.383-0.351-0.969-0.351-1.352,0  c-0.168,0.154-3.641,3.388-4.502,7.768c-5.079-1.524-10.177,0.118-10.408,0.195c-0.264,0.087-0.479,0.281-0.595,0.534  c-0.116,0.253-0.121,0.542-0.015,0.799c0.098,0.235,2.27,5.33,6.909,8.14c-3.678,2.243-6.241,6.178-6.532,10.757  c-0.073,1.135-0.251,1.698,0.155,2.16c0.407,0.461,0.984,0.356,2.123,0.428c3.397,0.214,6.584-0.833,9.121-2.777  c1.338,3.125,3.632,5.257,3.742,5.358c0.191,0.176,0.435,0.264,0.677,0.264s0.485-0.088,0.677-0.264  c0.064-0.059,0.854-0.794,1.769-2.005c-0.078,1.281-0.265,2.845-0.66,4.562c-1.054-1.202-2.85-2.134-5.734-1.792  c-2.832,0.345-6.756,2.953-6.756,6.955c0,0.754,0.897,1.28,1.563,0.826c3.31-2.259,6.171-2.104,8.511,0.46  c-1.571,2.897-3.91,5.782-7.393,8.175c-0.455,0.313-0.57,0.936-0.258,1.391c0.194,0.282,0.507,0.434,0.825,0.434  c0.195,0,0.393-0.057,0.565-0.176c3.862-2.654,6.808-6.132,8.751-10.337c1.035-0.629,6.485-3.56,11.214,1.264  c0.751,0.766,1.96-0.036,1.671-0.99c-1.295-4.273-3.293-6.869-5.938-7.716c-1.796-0.574-3.5-0.21-4.747,0.287  c0.558-3.275,0.44-5.814,0.372-6.686c2.294,1.753,5.15,2.796,8.23,2.796h0.001c0.613,0,1.058-0.04,2.312-0.119  c0.265-0.017,0.512-0.138,0.688-0.337c0.406-0.463,0.228-1.025,0.155-2.16c-0.291-4.58-2.854-8.515-6.532-10.757  C45.926,20.573,48.097,15.479,48.195,15.244z M32.001,8.127c1.152,1.289,3.369,4.201,3.369,7.518c0,2.273-1.046,4.337-2.028,5.779  L33,21.446v-4.1c0-0.552-0.447-1-1-1s-1,0.448-1,1v4.1l-0.342-0.022c-0.982-1.443-2.028-3.506-2.028-5.779  C28.63,12.341,30.85,9.42,32.001,8.127z M24.881,22.283c-3.555-1.624-5.774-5.042-6.712-6.767c1.729-0.381,5.186-0.855,8.468,0.256  c0.018,1.334,0.319,2.588,0.754,3.719l-3.043-1.928c-0.467-0.296-1.084-0.157-1.38,0.31s-0.157,1.084,0.31,1.38l3.823,2.422  c-0.748,0.15-1.475,0.359-2.175,0.627C24.91,22.296,24.895,22.29,24.881,22.283z M18.587,34.733l-0.438-0.027l0.028-0.438  c0.378-5.957,5.261-10.651,11.154-10.865l-3.739,3.06c-0.427,0.35-0.49,0.98-0.14,1.407c0.197,0.242,0.484,0.367,0.774,0.367  c0.223,0,0.446-0.074,0.633-0.226l3.948-3.232C29.969,30.682,24.698,35.105,18.587,34.733z M31.999,37.132  c-0.797-0.894-2.098-2.57-2.826-4.623c1.208-1.27,2.177-2.77,2.827-4.435c0.65,1.666,1.619,3.165,2.828,4.436  C34.1,34.554,32.797,36.236,31.999,37.132z M23.831,45.035c0.944-1.694,2.952-2.791,4.463-2.974c3.627-0.451,4.512,1.73,4.712,2.53  c-0.207,0.6-0.443,1.208-0.709,1.821C29.884,44.129,26.964,43.66,23.831,45.035z M40.199,42.265  c1.293,0.414,2.403,1.486,3.324,3.176c-3.252-1.657-6.475-1.081-8.575-0.326c0.038-0.085,0.061-0.173,0.074-0.267  c0.187-0.571,0.352-1.133,0.495-1.683C36.169,42.738,38.161,41.613,40.199,42.265z M45.822,34.268l0.028,0.438l-0.438,0.027  C39.3,35.11,34.03,30.682,33.192,24.779l3.948,3.232c0.187,0.152,0.41,0.226,0.633,0.226c0.29,0,0.577-0.125,0.774-0.367  c0.351-0.427,0.287-1.057-0.14-1.407l-3.737-3.059C40.567,23.626,45.445,28.312,45.822,34.268z M39.118,22.284  c-0.014,0.007-0.029,0.012-0.043,0.019c-0.7-0.269-1.427-0.477-2.176-0.627l3.823-2.422c0.467-0.295,0.605-0.914,0.31-1.38  c-0.295-0.466-0.912-0.604-1.38-0.31l-3.043,1.928c0.434-1.132,0.735-2.385,0.754-3.719c3.273-1.108,6.734-0.634,8.467-0.254  C44.892,17.243,42.672,20.66,39.118,22.284z"/></svg>