<?xml version="1.0" encoding="iso-8859-1"?>
<!-- Uploaded to: SVG Repo, www.svgrepo.com, Generator: SVG Repo Mixer Tools -->
<svg fill="#000000" height="800px" width="800px" version="1.1" id="Layer_1" xmlns="http://www.w3.org/2000/svg" xmlns:xlink="http://www.w3.org/1999/xlink" 
	 viewBox="0 0 512 512" xml:space="preserve">
<g>
	<g>
		<path d="M374.169,303.791c-1.242,0.077-30.784,1.965-60.855,9.51c-21.665,5.435-38.012,12.416-48.978,20.881v-91.394
			c60.286-3.101,61.018-39.775,61.018-41.403V37.756h-8.334c-9.227,0-17.849,1.157-25.737,3.405L256.002,0l-35.273,41.161
			c-7.883-2.249-16.503-3.406-25.734-3.406h-8.334v163.63c0,1.628,0.732,38.301,61.006,41.403v91.394
			c-10.966-8.465-27.314-15.446-48.978-20.881c-30.071-7.545-59.612-9.433-60.855-9.51l-14.79-0.912l6.901,13.113
			c0.481,0.913,11.961,22.623,28.516,44.899c23.279,31.323,44.642,47.632,63.493,48.477c0.529,0.023,1.049,0.036,1.566,0.036
			c10.156,0,18.122-4.492,24.146-10.192V512h16.669V399.21c6.025,5.701,13.991,10.191,24.146,10.191
			c0.516,0,1.039-0.011,1.566-0.036c18.851-0.845,40.214-17.154,63.493-48.477c16.554-22.276,28.036-43.985,28.516-44.899
			l6.901-13.113L374.169,303.791z M256.002,25.616l19.091,22.278c-8.263,4.709-14.474,10.518-19.091,16.276
			c-4.617-5.76-10.83-11.569-19.096-16.279L256.002,25.616z M245.974,372.433l-43.575-28.172l-9.051,13.998l43.582,28.177
			c-6.529,6.615-12.1,6.378-14.225,6.28c-21.655-0.966-51.663-39.607-70.283-70.774c11.144,1.322,26.854,3.662,42.402,7.576
			c19.736,4.968,52.844,16.097,52.844,34.822C247.668,366.854,247.087,369.563,245.974,372.433z M256.003,226.334
			c-50.447-0.001-52.588-23.532-52.673-25.067V54.806c6.236,0.59,12.007,1.861,17.231,3.799
			c15.591,5.771,23.861,16.566,28.051,24.606l3.959,7.596c3.141,6.195,7.786,15.714,12.411,26.504
			c10.446,24.374,15.967,43.858,15.967,56.348h16.669c0-30.187-24.465-79.494-32.097-94.14c4.657-7.409,12.619-15.99,25.925-20.915
			c5.228-1.938,11.001-3.208,17.24-3.798v146.46C308.603,202.809,306.454,226.334,256.003,226.334z M289.303,392.715
			c-2.115,0.099-7.693,0.339-14.228-6.281l43.583-28.176l-9.051-13.998l-43.576,28.172c-1.112-2.87-1.694-5.58-1.694-8.093
			c0-18.724,33.108-29.854,52.844-34.822c15.551-3.915,31.266-6.254,42.409-7.578C340.987,353.104,310.988,391.744,289.303,392.715z
			"/>
	</g>
</g>
</svg>